<svg xmlns="http://www.w3.org/2000/svg" width="64" height="64" viewBox="0 0 64 64">
  <g id="Group_14867" data-name="Group 14867" transform="translate(5373 10060)">
    <rect id="Rectangle_5063" data-name="Rectangle 5063" width="64" height="64" transform="translate(-5373 -10060)" fill="#4eb3e3"/>
    <g id="Group_14866" data-name="Group 14866" transform="translate(-5473 -10160)">
      <g id="Group_8421" data-name="Group 8421" transform="translate(114.058 110.641)">
        <g id="Group_8935" data-name="Group 8935" transform="translate(0 0)">
          <path id="Path_244" data-name="Path 244" d="M70.434,11.52a8.47,8.47,0,0,0-1.009.061,8.864,8.864,0,0,0-2.414.65c-5.421,2.3-9.412,9.917-9.412,18.937s3.991,16.639,9.412,18.937a8.864,8.864,0,0,0,2.414.65,8.47,8.47,0,0,0,1.009.061c7.077,0,12.834-8.814,12.834-19.648S77.511,11.52,70.434,11.52" transform="translate(-49.096 -9.809)" fill="#f8cc5d"/>
          <path id="Path_245" data-name="Path 245" d="M17.694,92.16H12.617A28.58,28.58,0,0,0,11.606,99h5.135a30.372,30.372,0,0,1,.953-6.845" transform="translate(-9.882 -78.494)" fill="#f8cc5d"/>
          <path id="Path_246" data-name="Path 246" d="M29.5,46.08h-4.8a20.873,20.873,0,0,0-2.633,5.134H27.1a23.555,23.555,0,0,1,2.4-5.134" transform="translate(-18.783 -39.246)" fill="#f8cc5d"/>
          <path id="Path_247" data-name="Path 247" d="M16.742,149.76H11.607a28.579,28.579,0,0,0,1.011,6.845h5.076a30.38,30.38,0,0,1-.953-6.845" transform="translate(-9.883 -127.553)" fill="#f8cc5d"/>
          <path id="Path_248" data-name="Path 248" d="M57.519,11.581a8.488,8.488,0,0,0-1.009-.061,10.022,10.022,0,0,0-7.224,3.422h4.595a15,15,0,0,1,3.638-3.362" transform="translate(-41.979 -9.809)" fill="#f8cc5d"/>
          <path id="Path_249" data-name="Path 249" d="M27.1,207.36H22.059a20.88,20.88,0,0,0,2.633,5.134h4.8a23.569,23.569,0,0,1-2.4-5.134" transform="translate(-18.782 -176.609)" fill="#f8cc5d"/>
          <path id="Path_250" data-name="Path 250" d="M53.881,253.44H49.286a10.022,10.022,0,0,0,7.224,3.422,8.476,8.476,0,0,0,1.009-.061,15,15,0,0,1-3.638-3.362" transform="translate(-41.979 -215.855)" fill="#f8cc5d"/>
          <path id="Path_251" data-name="Path 251" d="M21.359,0H14.524C10.578,0,6.893,2.268,4.147,6.386A27.226,27.226,0,0,0,0,21.359,27.226,27.226,0,0,0,4.147,36.332c2.746,4.118,6.431,6.386,10.377,6.386h6.835c3.946,0,7.631-2.268,10.377-6.386a27.226,27.226,0,0,0,4.147-14.973A27.226,27.226,0,0,0,31.736,6.386C28.991,2.268,25.305,0,21.359,0M14.524,1.709a8.445,8.445,0,0,1,1.007.061A14.971,14.971,0,0,0,11.9,5.126H7.31a10.007,10.007,0,0,1,7.214-3.417M5.9,6.835h4.8a23.528,23.528,0,0,0-2.392,5.126H3.272A20.847,20.847,0,0,1,5.9,6.835M2.731,13.67H7.8A30.336,30.336,0,0,0,6.849,20.5H1.722a28.523,28.523,0,0,1,1.01-6.835m-1.01,8.544H6.849A30.336,30.336,0,0,0,7.8,29.049H2.731a28.523,28.523,0,0,1-1.01-6.835M5.9,35.883a20.847,20.847,0,0,1-2.629-5.126H8.305A23.528,23.528,0,0,0,10.7,35.883Zm8.623,5.126A10.007,10.007,0,0,1,7.31,37.592H11.9a14.971,14.971,0,0,0,3.633,3.357,8.443,8.443,0,0,1-1.007.061m6.835,0a8.442,8.442,0,0,1-1.007-.061,8.84,8.84,0,0,1-2.41-.65c-5.413-2.3-9.4-9.919-9.4-18.94s3.985-16.641,9.4-18.94a8.841,8.841,0,0,1,2.41-.65,8.444,8.444,0,0,1,1.007-.061c7.066,0,12.816,8.815,12.816,19.65S28.426,41.01,21.359,41.01" transform="translate(0 0)"/>
          <path id="Path_252" data-name="Path 252" d="M114.456,67.312l-4.34,17.115a.6.6,0,0,1-.423.448.564.564,0,0,1-.255.006.752.752,0,0,1-.567-.7l-.529-9.869-5.517,1.435a.619.619,0,0,1-.582-.168.8.8,0,0,1-.241-.618l.776-12.9a.621.621,0,0,1,.444-.585l5.569-1.449a.621.621,0,0,1,.593.179.8.8,0,0,1,.227.639l-.7,6.785,4.74-1.233a.63.63,0,0,1,.63.219.8.8,0,0,1,.171.705" transform="translate(-86.883 -51.087)" fill="#ff007c"/>
          <path id="Path_253" data-name="Path 253" d="M113.654,66.388l-4.74,1.233.7-6.785a.8.8,0,0,0-.227-.639.622.622,0,0,0-.593-.179l-5.569,1.449a.621.621,0,0,0-.444.585L102,74.957a.8.8,0,0,0,.24.618.619.619,0,0,0,.582.168l5.517-1.435.529,9.869a.752.752,0,0,0,.567.7.566.566,0,0,0,.255-.006.6.6,0,0,0,.423-.448l4.341-17.115a.8.8,0,0,0-.171-.705.631.631,0,0,0-.63-.219" transform="translate(-86.883 -51.087)"/>
        </g>
      </g>
    </g>
  </g>
</svg>
