<svg id="gift-card_1_" data-name="gift-card (1)" xmlns="http://www.w3.org/2000/svg" width="128" height="91" viewBox="0 0 128 91">
  <path id="Path_21140" data-name="Path 21140" d="M123,170H20a10,10,0,0,1-10-10V94A10,10,0,0,1,20,84H123a10,10,0,0,1,10,10v66A10,10,0,0,1,123,170Z" transform="translate(-7.5 -81.5)" fill="#8cd943"/>
  <g id="Group_12241" data-name="Group 12241" transform="translate(62.338 45.5)">
    <path id="Path_21141" data-name="Path 21141" d="M350.114,261.686,365.6,289.212l2.248-8.4,8.4,2.255-12-21.377Z" transform="translate(-324.923 -260.264)" fill="#fff"/>
    <path id="Path_21142" data-name="Path 21142" d="M273.441,256,260,279.277l-2.248-8.4-8.4,2.255,7.829-13.878Z" transform="translate(-249.35 -256)" fill="#fff"/>
  </g>
  <path id="Path_21143" data-name="Path 21143" d="M335.392,209.188h-1.283a5.134,5.134,0,0,1-5.134-5.134v-5.348a5.134,5.134,0,0,1,5.134-5.134h1.283a5.134,5.134,0,0,1,5.134,5.134v5.348A5.134,5.134,0,0,1,335.392,209.188Z" transform="translate(-246.731 -163.679)" fill="#f8cc5d"/>
  <g id="Group_12242" data-name="Group 12242" transform="translate(61.688 23.849)">
    <path id="Path_21144" data-name="Path 21144" d="M268.394,176.647l-14.317-6.755a5.134,5.134,0,0,0-7.325,4.643v17.516a5.134,5.134,0,0,0,7.325,4.643l14.317-6.755" transform="translate(-246.752 -169.395)" fill="#fff"/>
    <path id="Path_21145" data-name="Path 21145" d="M370.682,189.94,385,196.694a5.134,5.134,0,0,0,7.325-4.643V174.535A5.134,5.134,0,0,0,385,169.892l-14.317,6.755" transform="translate(-339.699 -169.395)" fill="#fff"/>
  </g>
  <path id="Path_21146" data-name="Path 21146" d="M115.5,74H12.5A12.514,12.514,0,0,0,0,86.5v66A12.514,12.514,0,0,0,12.5,165H51.25a2.5,2.5,0,0,0,0-5H12.5A7.509,7.509,0,0,1,5,152.5V122H59.335a7.592,7.592,0,0,0,3.4,4.953,7.68,7.68,0,0,0,1.843.849l-4.4,7.569a2.5,2.5,0,0,0,2.809,3.671l5.986-1.607,1.6,5.988a2.5,2.5,0,0,0,4.58.6l11.4-19.742,14.28,25.388a2.5,2.5,0,0,0,4.594-.579l1.6-5.988,5.986,1.607a2.5,2.5,0,0,0,2.823-3.649l-7.352-12.955c.232.021.465.035.7.035A7.649,7.649,0,0,0,116.665,122H123v30.5a7.509,7.509,0,0,1-7.5,7.5h-25V146.5a2.5,2.5,0,1,0-5,0V160H72.509a2.5,2.5,0,0,0,0,5H115.5A12.514,12.514,0,0,0,128,152.5v-66A12.514,12.514,0,0,0,115.5,74ZM91.3,109.027v5.348a2.637,2.637,0,0,1-2.634,2.634H87.378a2.637,2.637,0,0,1-2.634-2.634v-5.348a2.637,2.637,0,0,1,2.634-2.634h1.284A2.637,2.637,0,0,1,91.3,109.027ZM5,86.5A7.509,7.509,0,0,1,12.5,79h73v21.417a2.485,2.485,0,0,0,.28,1.146,7.589,7.589,0,0,0-2.243.871L70.079,96.085a7.634,7.634,0,0,0-10.891,6.9V117H5Zm59.188,16.489a2.634,2.634,0,0,1,3.758-2.382l12.266,5.787a7.6,7.6,0,0,0-.468,2.633v5.348a7.587,7.587,0,0,0,.5,2.71l-12.3,5.8a2.634,2.634,0,0,1-3.758-2.382V102.989h0ZM73.843,136.3l-.688-2.571a2.5,2.5,0,0,0-3.063-1.769l-2.545.683,3.235-5.563,11.523-5.436Zm32.064,1.331a2.5,2.5,0,0,0-3.063,1.768l-.663,2.477L90.831,121.693a7.585,7.585,0,0,0,1.566-.665l8.632,4.073,7.51,13.233Zm5.9-17.124a2.634,2.634,0,0,1-3.758,2.382L95.79,117.1a7.594,7.594,0,0,0,.5-2.726v-5.348a7.6,7.6,0,0,0-.474-2.648l12.233-5.772a2.634,2.634,0,0,1,3.758,2.382v17.516Zm5-3.5V102.989a7.634,7.634,0,0,0-10.892-6.9l-13.436,6.339a7.581,7.581,0,0,0-2.26-.869,2.487,2.487,0,0,0,.276-1.138V79h25a7.509,7.509,0,0,1,7.5,7.5V117Z" transform="translate(0 -74)" fill="#1f343e"/>
  <path id="Path_21147" data-name="Path 21147" d="M239.25,418a2.5,2.5,0,1,0,1.767.732A2.519,2.519,0,0,0,239.25,418Z" transform="translate(-177.563 -332)" fill="#1f343e"/>
  <path id="Path_21148" data-name="Path 21148" d="M93.375,128H56.5a2.5,2.5,0,0,0,0,5H93.375a2.5,2.5,0,0,0,0-5Z" transform="translate(-40.5 -114.5)" fill="#1f343e"/>
  <path id="Path_21149" data-name="Path 21149" d="M93.375,354H56.5a2.5,2.5,0,0,0,0,5H93.375a2.5,2.5,0,0,0,0-5Z" transform="translate(-40.5 -284)" fill="#1f343e"/>
  <path id="Path_21150" data-name="Path 21150" d="M72,182H56.5a2.5,2.5,0,0,0,0,5H72a2.5,2.5,0,0,0,0-5Z" transform="translate(-40.5 -155)" fill="#1f343e"/>
  <path id="Path_21151" data-name="Path 21151" d="M157.19,182a2.5,2.5,0,1,0,1.768.732A2.515,2.515,0,0,0,157.19,182Z" transform="translate(-116.018 -155)" fill="#1f343e"/>
</svg>
